<?xml version="1.0" encoding="utf-8"?>
<!-- Generator: Adobe Illustrator 16.0.0, SVG Export Plug-In . SVG Version: 6.00 Build 0)  -->
<!DOCTYPE svg PUBLIC "-//W3C//DTD SVG 1.1//EN" "http://www.w3.org/Graphics/SVG/1.1/DTD/svg11.dtd">
<svg version="1.1" id="Layer_1" xmlns="http://www.w3.org/2000/svg" xmlns:xlink="http://www.w3.org/1999/xlink" x="0px" y="0px"
	 width="200px" height="200px" viewBox="0 0 200 200" enable-background="new 0 0 200 200" xml:space="preserve">
<g>
	<g>
		<path d="M5.174,10.179C64.389,69.395,123.604,128.61,182.82,187.826c1.179-1.179,2.356-2.356,3.535-3.535
			c-1.176-1.177-2.353-2.354-3.529-3.529c-1.179,1.179-2.356,2.356-3.535,3.535c3.823,3.823,7.647,7.647,11.471,11.471
			c1.179-1.179,2.356-2.356,3.535-3.535c-0.686-0.687-1.372-1.373-2.059-2.059c-2.281-2.282-5.817,1.254-3.535,3.535
			c0.686,0.687,1.372,1.373,2.059,2.059c2.281,2.282,5.817-1.254,3.535-3.535c-3.823-3.824-7.646-7.647-11.471-11.471
			c-2.282-2.282-5.817,1.254-3.535,3.535c1.176,1.177,2.353,2.354,3.529,3.529c2.281,2.282,5.817-1.254,3.535-3.535
			C127.14,125.075,67.924,65.86,8.709,6.644C6.427,4.362,2.892,7.897,5.174,10.179L5.174,10.179z"/>
	</g>
</g>
<g>
	<g>
		<path d="M166.944,190.768c7.395-7.115,14.649-14.37,21.765-21.765c2.235-2.322-1.296-5.862-3.535-3.535
			c-7.115,7.395-14.37,14.649-21.765,21.765C161.082,189.472,164.622,193.003,166.944,190.768L166.944,190.768z"/>
	</g>
</g>
<g>
	<g>
		<path d="M124.591,192.826c23.523-23.241,46.771-46.759,70.294-70c2.297-2.269-1.24-5.803-3.535-3.535
			c-23.523,23.241-46.771,46.759-70.294,70C118.76,191.56,122.296,195.094,124.591,192.826L124.591,192.826z"/>
	</g>
</g>
<g>
	<g>
		<path d="M6.944,195.18C68.807,133.317,130.67,71.454,192.532,9.591c2.282-2.282-1.254-5.817-3.535-3.535
			C127.134,67.919,65.271,129.782,3.409,191.645C1.126,193.926,4.662,197.462,6.944,195.18L6.944,195.18z"/>
	</g>
</g>
<g>
	<g>
		<path d="M76.944,101.356c16.565-16.278,32.99-32.696,49.412-49.118c2.282-2.282-1.253-5.817-3.535-3.535
			c-4.561,4.56-9.132,9.104-13.823,13.529c-2.35,2.216,1.192,5.746,3.535,3.535c4.691-4.425,9.264-8.97,13.823-13.529
			c-1.179-1.178-2.356-2.357-3.535-3.535c-16.422,16.421-32.847,32.84-49.412,49.118C71.106,100.083,74.644,103.617,76.944,101.356
			L76.944,101.356z"/>
	</g>
</g>
<g>
	<g>
		<path d="M85.468,62.526c-15.891,16.168-32.051,32.067-47.941,48.235c-2.261,2.3,1.272,5.838,3.535,3.535
			C56.952,98.129,73.113,82.23,89.003,66.062C91.264,63.761,87.73,60.224,85.468,62.526L85.468,62.526z"/>
	</g>
</g>
<g>
	<g>
		<path d="M85.468,65.944c13.921,13.922,27.843,27.843,41.765,41.765c2.281,2.282,5.817-1.254,3.535-3.535
			c-13.921-13.922-27.843-27.843-41.765-41.765C86.721,60.126,83.186,63.662,85.468,65.944L85.468,65.944z"/>
	</g>
</g>
<g>
	<g>
		<path d="M122.82,51.826c23.235,23.235,46.471,46.471,69.706,69.706c2.281,2.282,5.817-1.254,3.535-3.535
			c-23.235-23.235-46.471-46.471-69.706-69.706C124.074,46.009,120.538,49.544,122.82,51.826L122.82,51.826z"/>
	</g>
</g>
<g>
	<g>
		<path d="M26.532,196.18c27.993-27.988,56.125-55.836,84.118-83.824c2.282-2.281-1.253-5.817-3.535-3.535
			c-27.993,27.988-56.125,55.836-84.118,83.824C20.715,194.926,24.25,198.462,26.532,196.18L26.532,196.18z"/>
	</g>
</g>
<g>
	<g>
		<path d="M7.223,9.99c60.802,0,121.604,0,182.405,0c3.225,0,3.225-5,0-5c-60.802,0-121.604,0-182.405,0
			C3.999,4.99,3.999,9.99,7.223,9.99L7.223,9.99z"/>
	</g>
</g>
<g>
	<g>
		<path d="M157.204,147.794c8.994-8.992,17.986-17.986,26.979-26.979c2.282-2.281-1.254-5.817-3.535-3.535
			c-8.993,8.993-17.986,17.986-26.979,26.979C151.387,146.54,154.922,150.076,157.204,147.794L157.204,147.794z"/>
	</g>
</g>
<g>
	<g>
		<path d="M146.248,136.316c8.994-8.992,17.986-17.986,26.979-26.979c2.282-2.281-1.254-5.817-3.535-3.535
			c-8.993,8.993-17.986,17.986-26.979,26.979C140.431,135.062,143.967,138.599,146.248,136.316L146.248,136.316z"/>
	</g>
</g>
<g>
	<g>
		<path d="M134.229,126.938c8.994-8.992,17.986-17.986,26.979-26.979c2.282-2.282-1.254-5.817-3.535-3.535
			c-8.993,8.993-17.986,17.986-26.979,26.979C128.411,125.684,131.947,129.22,134.229,126.938L134.229,126.938z"/>
	</g>
</g>
<g>
	<g>
		<path d="M123.272,115.46c8.993-8.992,17.986-17.986,26.979-26.979c2.282-2.282-1.254-5.817-3.535-3.535
			c-8.993,8.993-17.986,17.986-26.979,26.979C117.455,114.206,120.99,117.742,123.272,115.46L123.272,115.46z"/>
	</g>
</g>
</svg>
