<?xml version="1.0" encoding="utf-8"?>
<!-- Generator: Adobe Illustrator 16.0.0, SVG Export Plug-In . SVG Version: 6.00 Build 0)  -->
<!DOCTYPE svg PUBLIC "-//W3C//DTD SVG 1.1//EN" "http://www.w3.org/Graphics/SVG/1.1/DTD/svg11.dtd">
<svg version="1.1" id="Layer_1" xmlns="http://www.w3.org/2000/svg" xmlns:xlink="http://www.w3.org/1999/xlink" x="0px" y="0px"
	 width="200px" height="200px" viewBox="0 0 200 200" enable-background="new 0 0 200 200" xml:space="preserve">
<g>
	<path d="M84.592,135.834l-0.5-6.5c-1.5-13.5,3-28.25,15.5-43.25c11.25-13.25,17.5-23,17.5-34.25c0-12.75-8-21.25-23.75-21.5
		c-9,0-19,3-25.25,7.75l-6-15.75c8.25-6,22.5-10,35.75-10c28.75,0,41.75,17.75,41.75,36.75c0,17-9.5,29.25-21.5,43.5
		c-11,13-15,24-14.25,36.75l0.25,6.5H84.592z M79.092,170.834c0-9.25,6.25-15.75,15-15.75s14.75,6.5,14.75,15.75
		c0,8.75-5.75,15.5-15,15.5C85.092,186.334,79.092,179.584,79.092,170.834z"/>
</g>
</svg>
